<svg width="393" height="360" viewBox="0 0 393 360" fill="none" xmlns="http://www.w3.org/2000/svg">
<g clip-path="url(#clip0_148_230)">
<path d="M429.159 55.2272C406.516 18.2721 377.025 -1.45214 346.711 0.0833685C316.397 1.61888 287.546 24.2983 266.052 63.4891C244.558 102.68 232.043 155.425 231.062 210.951C230.082 266.477 240.71 320.593 260.776 362.247L262.434 359.567C242.741 318.687 232.31 265.576 233.273 211.082C234.235 156.588 246.518 104.823 267.612 66.3607C288.707 27.8983 317.021 5.64041 346.772 4.13344C376.523 2.62647 405.465 21.9841 427.688 58.2524L429.159 55.2272Z" fill="#A99DE7"/>
<path d="M456.159 68.2271C434.137 32.2863 405.615 12.6072 376.122 13.0059C346.629 13.4047 318.268 33.8528 296.538 70.3851C274.809 106.917 261.259 156.931 258.516 210.726C255.773 264.522 264.033 318.267 281.694 361.54L283.465 359.114C266.132 316.646 258.026 263.899 260.718 211.103C263.41 158.307 276.708 109.223 298.034 73.3702C319.36 37.5168 347.194 17.4488 376.138 17.0575C405.083 16.6662 433.075 35.9795 454.688 71.2523L456.159 68.2271Z" fill="#A99DE7"/>
<path d="M486.159 92.2272C465.216 58.0473 438.356 38.5178 410.319 37.0848C382.281 35.6519 354.869 52.4078 332.918 84.3955C310.968 116.383 295.891 161.547 290.347 211.916C284.804 262.285 289.151 314.623 302.621 359.693L304.561 357.747C291.341 313.515 287.075 262.15 292.515 212.717C297.956 163.284 312.753 118.96 334.295 87.5663C355.837 56.1731 382.741 39.7286 410.257 41.1349C437.773 42.5412 464.134 61.7078 484.688 95.2524L486.159 92.2272Z" fill="#A99DE7"/>
<path d="M264.861 241.273C263.599 241.273 262.511 240.994 261.597 240.438C260.688 239.875 259.986 239.091 259.491 238.085C259.003 237.074 258.759 235.898 258.759 234.557C258.759 233.216 259.003 232.034 259.491 231.011C259.986 229.983 260.673 229.182 261.554 228.608C262.44 228.028 263.474 227.739 264.656 227.739C265.338 227.739 266.011 227.852 266.676 228.08C267.341 228.307 267.946 228.676 268.491 229.188C269.037 229.693 269.472 230.364 269.795 231.199C270.119 232.034 270.281 233.063 270.281 234.284V235.136H260.19V233.398H268.236C268.236 232.659 268.088 232 267.793 231.42C267.503 230.841 267.088 230.384 266.548 230.048C266.014 229.713 265.384 229.545 264.656 229.545C263.855 229.545 263.162 229.744 262.577 230.142C261.997 230.534 261.551 231.045 261.239 231.676C260.926 232.307 260.77 232.983 260.77 233.705V234.864C260.77 235.852 260.94 236.69 261.281 237.378C261.628 238.06 262.108 238.58 262.722 238.938C263.335 239.29 264.048 239.466 264.861 239.466C265.389 239.466 265.866 239.392 266.293 239.244C266.724 239.091 267.097 238.864 267.409 238.563C267.722 238.256 267.963 237.875 268.134 237.42L270.077 237.966C269.872 238.625 269.528 239.205 269.045 239.705C268.563 240.199 267.966 240.585 267.256 240.864C266.545 241.136 265.747 241.273 264.861 241.273Z" fill="white"/>
<path d="M250.031 246.182C249.06 246.182 248.224 246.057 247.526 245.807C246.827 245.563 246.244 245.239 245.778 244.835C245.318 244.438 244.952 244.011 244.679 243.557L246.281 242.432C246.463 242.67 246.693 242.943 246.972 243.25C247.25 243.563 247.631 243.832 248.114 244.06C248.602 244.293 249.241 244.409 250.031 244.409C251.088 244.409 251.96 244.153 252.648 243.642C253.335 243.131 253.679 242.33 253.679 241.239V238.58H253.509C253.361 238.818 253.151 239.114 252.878 239.466C252.611 239.813 252.224 240.122 251.719 240.395C251.219 240.662 250.543 240.795 249.69 240.795C248.634 240.795 247.685 240.545 246.844 240.045C246.009 239.545 245.347 238.818 244.858 237.864C244.375 236.909 244.134 235.75 244.134 234.386C244.134 233.045 244.369 231.878 244.841 230.884C245.312 229.884 245.969 229.111 246.81 228.565C247.651 228.014 248.622 227.739 249.724 227.739C250.577 227.739 251.253 227.881 251.753 228.165C252.259 228.443 252.645 228.761 252.912 229.119C253.185 229.472 253.395 229.761 253.543 229.989H253.747V227.909H255.69V241.375C255.69 242.5 255.435 243.415 254.923 244.119C254.418 244.83 253.736 245.349 252.878 245.679C252.026 246.014 251.077 246.182 250.031 246.182ZM249.963 238.989C250.77 238.989 251.452 238.804 252.009 238.435C252.565 238.065 252.989 237.534 253.278 236.841C253.568 236.148 253.713 235.318 253.713 234.352C253.713 233.409 253.571 232.577 253.287 231.855C253.003 231.134 252.582 230.568 252.026 230.159C251.469 229.75 250.781 229.545 249.963 229.545C249.111 229.545 248.401 229.761 247.832 230.193C247.27 230.625 246.847 231.205 246.562 231.932C246.284 232.659 246.145 233.466 246.145 234.352C246.145 235.261 246.287 236.065 246.571 236.764C246.861 237.457 247.287 238.003 247.849 238.401C248.418 238.793 249.122 238.989 249.963 238.989Z" fill="white"/>
<path d="M235.076 241.307C234.246 241.307 233.494 241.151 232.817 240.838C232.141 240.52 231.604 240.063 231.207 239.466C230.809 238.864 230.61 238.136 230.61 237.284C230.61 236.534 230.758 235.926 231.053 235.46C231.349 234.989 231.744 234.619 232.238 234.352C232.732 234.085 233.278 233.886 233.874 233.756C234.477 233.619 235.082 233.511 235.69 233.432C236.485 233.33 237.13 233.253 237.624 233.202C238.124 233.145 238.488 233.051 238.715 232.92C238.948 232.79 239.065 232.563 239.065 232.239V232.17C239.065 231.33 238.835 230.676 238.374 230.21C237.92 229.744 237.229 229.511 236.303 229.511C235.343 229.511 234.59 229.722 234.045 230.142C233.499 230.563 233.116 231.011 232.894 231.489L230.985 230.807C231.326 230.011 231.781 229.392 232.349 228.949C232.923 228.5 233.548 228.188 234.224 228.011C234.906 227.83 235.576 227.739 236.235 227.739C236.656 227.739 237.138 227.79 237.684 227.892C238.235 227.989 238.766 228.19 239.278 228.497C239.795 228.804 240.224 229.267 240.565 229.886C240.906 230.506 241.076 231.335 241.076 232.375V241H239.065V239.227H238.962C238.826 239.511 238.599 239.815 238.281 240.139C237.962 240.463 237.539 240.739 237.011 240.966C236.482 241.193 235.837 241.307 235.076 241.307ZM235.383 239.5C236.178 239.5 236.849 239.344 237.394 239.031C237.945 238.719 238.36 238.315 238.638 237.821C238.923 237.327 239.065 236.807 239.065 236.261V234.42C238.979 234.523 238.792 234.616 238.502 234.702C238.218 234.781 237.888 234.852 237.513 234.915C237.144 234.972 236.783 235.023 236.431 235.068C236.085 235.108 235.803 235.142 235.587 235.17C235.065 235.239 234.576 235.349 234.121 235.503C233.673 235.651 233.309 235.875 233.031 236.176C232.758 236.472 232.621 236.875 232.621 237.386C232.621 238.085 232.88 238.614 233.397 238.972C233.92 239.324 234.582 239.5 235.383 239.5Z" fill="white"/>
<path d="M228.198 227.909V229.614H221.414V227.909H228.198ZM223.391 224.773H225.403V237.25C225.403 237.818 225.485 238.244 225.65 238.528C225.82 238.807 226.036 238.994 226.298 239.091C226.565 239.182 226.846 239.227 227.141 239.227C227.363 239.227 227.545 239.216 227.687 239.193C227.829 239.165 227.942 239.142 228.028 239.125L228.437 240.932C228.3 240.983 228.11 241.034 227.866 241.085C227.621 241.142 227.312 241.17 226.937 241.17C226.369 241.17 225.812 241.048 225.266 240.804C224.727 240.56 224.278 240.187 223.92 239.687C223.567 239.187 223.391 238.557 223.391 237.795V224.773Z" fill="white"/>
<path d="M219.239 230.841L217.432 231.352C217.318 231.051 217.151 230.759 216.929 230.474C216.713 230.185 216.418 229.946 216.043 229.759C215.668 229.571 215.188 229.477 214.602 229.477C213.801 229.477 213.134 229.662 212.599 230.031C212.071 230.395 211.807 230.858 211.807 231.42C211.807 231.92 211.989 232.315 212.352 232.605C212.716 232.895 213.284 233.136 214.057 233.33L216 233.807C217.17 234.091 218.043 234.526 218.616 235.111C219.19 235.69 219.477 236.438 219.477 237.352C219.477 238.102 219.261 238.773 218.83 239.364C218.403 239.955 217.807 240.42 217.04 240.761C216.273 241.102 215.381 241.273 214.364 241.273C213.028 241.273 211.923 240.983 211.048 240.403C210.173 239.824 209.619 238.977 209.386 237.864L211.295 237.386C211.477 238.091 211.821 238.619 212.327 238.972C212.838 239.324 213.506 239.5 214.33 239.5C215.267 239.5 216.011 239.301 216.562 238.903C217.119 238.5 217.398 238.017 217.398 237.455C217.398 237 217.239 236.619 216.92 236.313C216.602 236 216.114 235.767 215.455 235.614L213.273 235.102C212.074 234.818 211.193 234.378 210.631 233.781C210.074 233.179 209.795 232.426 209.795 231.523C209.795 230.784 210.003 230.131 210.418 229.563C210.838 228.994 211.409 228.548 212.131 228.224C212.858 227.901 213.682 227.739 214.602 227.739C215.898 227.739 216.915 228.023 217.653 228.591C218.398 229.159 218.926 229.909 219.239 230.841Z" fill="white"/>
<path d="M194.286 241V227.909H196.229V229.886H196.366C196.604 229.239 197.036 228.713 197.661 228.31C198.286 227.906 198.991 227.705 199.775 227.705C199.923 227.705 200.107 227.707 200.329 227.713C200.55 227.719 200.718 227.727 200.832 227.739V229.784C200.763 229.767 200.607 229.742 200.363 229.707C200.124 229.668 199.871 229.648 199.604 229.648C198.968 229.648 198.4 229.781 197.9 230.048C197.406 230.31 197.013 230.673 196.724 231.139C196.44 231.599 196.298 232.125 196.298 232.716V241H194.286Z" fill="white"/>
<path d="M188.591 235.648V227.909H190.602V241H188.591V238.784H188.455C188.148 239.449 187.67 240.014 187.023 240.48C186.375 240.94 185.557 241.17 184.568 241.17C183.75 241.17 183.023 240.992 182.386 240.634C181.75 240.27 181.25 239.724 180.886 238.997C180.523 238.264 180.341 237.341 180.341 236.227V227.909H182.352V236.091C182.352 237.045 182.619 237.807 183.153 238.375C183.693 238.943 184.381 239.227 185.216 239.227C185.716 239.227 186.224 239.099 186.741 238.844C187.264 238.588 187.702 238.196 188.054 237.668C188.412 237.139 188.591 236.466 188.591 235.648Z" fill="white"/>
<path d="M171.339 241.273C170.157 241.273 169.12 240.991 168.228 240.429C167.342 239.866 166.648 239.08 166.148 238.068C165.654 237.057 165.407 235.875 165.407 234.523C165.407 233.159 165.654 231.969 166.148 230.952C166.648 229.935 167.342 229.145 168.228 228.582C169.12 228.02 170.157 227.739 171.339 227.739C172.521 227.739 173.555 228.02 174.441 228.582C175.333 229.145 176.026 229.935 176.521 230.952C177.021 231.969 177.271 233.159 177.271 234.523C177.271 235.875 177.021 237.057 176.521 238.068C176.026 239.08 175.333 239.866 174.441 240.429C173.555 240.991 172.521 241.273 171.339 241.273ZM171.339 239.466C172.237 239.466 172.975 239.236 173.555 238.776C174.134 238.315 174.563 237.71 174.842 236.96C175.12 236.21 175.259 235.398 175.259 234.523C175.259 233.648 175.12 232.832 174.842 232.077C174.563 231.321 174.134 230.71 173.555 230.244C172.975 229.778 172.237 229.545 171.339 229.545C170.441 229.545 169.702 229.778 169.123 230.244C168.543 230.71 168.114 231.321 167.836 232.077C167.558 232.832 167.418 233.648 167.418 234.523C167.418 235.398 167.558 236.21 167.836 236.96C168.114 237.71 168.543 238.315 169.123 238.776C169.702 239.236 170.441 239.466 171.339 239.466Z" fill="white"/>
<path d="M150.268 241.273C149.087 241.273 148.05 240.991 147.158 240.429C146.271 239.866 145.578 239.08 145.078 238.068C144.584 237.057 144.337 235.875 144.337 234.523C144.337 233.159 144.584 231.969 145.078 230.952C145.578 229.935 146.271 229.145 147.158 228.582C148.05 228.02 149.087 227.739 150.268 227.739C151.45 227.739 152.484 228.02 153.371 228.582C154.263 229.145 154.956 229.935 155.45 230.952C155.95 231.969 156.2 233.159 156.2 234.523C156.2 235.875 155.95 237.057 155.45 238.068C154.956 239.08 154.263 239.866 153.371 240.429C152.484 240.991 151.45 241.273 150.268 241.273ZM150.268 239.466C151.166 239.466 151.905 239.236 152.484 238.776C153.064 238.315 153.493 237.71 153.771 236.96C154.05 236.21 154.189 235.398 154.189 234.523C154.189 233.648 154.05 232.832 153.771 232.077C153.493 231.321 153.064 230.71 152.484 230.244C151.905 229.778 151.166 229.545 150.268 229.545C149.371 229.545 148.632 229.778 148.053 230.244C147.473 230.71 147.044 231.321 146.766 232.077C146.487 232.832 146.348 233.648 146.348 234.523C146.348 235.398 146.487 236.21 146.766 236.96C147.044 237.71 147.473 238.315 148.053 238.776C148.632 239.236 149.371 239.466 150.268 239.466Z" fill="white"/>
<path d="M142.065 227.909V229.614H135.281V227.909H142.065ZM137.259 224.773H139.27V237.25C139.27 237.818 139.352 238.244 139.517 238.528C139.687 238.807 139.903 238.994 140.165 239.091C140.432 239.182 140.713 239.227 141.009 239.227C141.23 239.227 141.412 239.216 141.554 239.193C141.696 239.165 141.81 239.142 141.895 239.125L142.304 240.932C142.168 240.983 141.977 241.034 141.733 241.085C141.489 241.142 141.179 241.17 140.804 241.17C140.236 241.17 139.679 241.048 139.134 240.804C138.594 240.56 138.145 240.187 137.787 239.687C137.435 239.187 137.259 238.557 137.259 237.795V224.773Z" fill="white"/>
<path d="M121.142 241.273C119.881 241.273 118.793 240.994 117.878 240.438C116.969 239.875 116.267 239.091 115.773 238.085C115.284 237.074 115.04 235.898 115.04 234.557C115.04 233.216 115.284 232.034 115.773 231.011C116.267 229.983 116.955 229.182 117.835 228.608C118.722 228.028 119.756 227.739 120.938 227.739C121.619 227.739 122.293 227.852 122.957 228.08C123.622 228.307 124.227 228.676 124.773 229.188C125.318 229.693 125.753 230.364 126.077 231.199C126.401 232.034 126.563 233.063 126.563 234.284V235.136H116.472V233.398H124.517C124.517 232.659 124.369 232 124.074 231.42C123.784 230.841 123.369 230.384 122.83 230.048C122.295 229.713 121.665 229.545 120.938 229.545C120.136 229.545 119.443 229.744 118.858 230.142C118.278 230.534 117.832 231.045 117.52 231.676C117.207 232.307 117.051 232.983 117.051 233.705V234.864C117.051 235.852 117.222 236.69 117.563 237.378C117.909 238.06 118.389 238.58 119.003 238.938C119.616 239.29 120.33 239.466 121.142 239.466C121.67 239.466 122.148 239.392 122.574 239.244C123.006 239.091 123.378 238.864 123.69 238.563C124.003 238.256 124.244 237.875 124.415 237.42L126.358 237.966C126.153 238.625 125.81 239.205 125.327 239.705C124.844 240.199 124.247 240.585 123.537 240.864C122.827 241.136 122.028 241.273 121.142 241.273Z" fill="white"/>
<path d="M94.794 241V227.909H96.7372V229.955H96.9077C97.1804 229.256 97.6207 228.713 98.2287 228.327C98.8366 227.935 99.5668 227.739 100.419 227.739C101.283 227.739 102.001 227.935 102.575 228.327C103.155 228.713 103.607 229.256 103.93 229.955H104.067C104.402 229.278 104.905 228.741 105.575 228.344C106.246 227.94 107.05 227.739 107.987 227.739C109.158 227.739 110.115 228.105 110.859 228.838C111.604 229.565 111.976 230.699 111.976 232.239V241H109.964V232.239C109.964 231.273 109.7 230.582 109.172 230.168C108.643 229.753 108.021 229.545 107.305 229.545C106.385 229.545 105.672 229.824 105.166 230.381C104.661 230.932 104.408 231.631 104.408 232.477V241H102.362V232.034C102.362 231.29 102.121 230.69 101.638 230.236C101.155 229.776 100.533 229.545 99.7713 229.545C99.2486 229.545 98.7599 229.685 98.3054 229.963C97.8565 230.241 97.4929 230.628 97.2145 231.122C96.9418 231.611 96.8054 232.176 96.8054 232.818V241H94.794Z" fill="white"/>
<path d="M85.7919 241.273C84.6101 241.273 83.5732 240.991 82.6811 240.429C81.7947 239.866 81.1016 239.08 80.6016 238.068C80.1072 237.057 79.8601 235.875 79.8601 234.523C79.8601 233.159 80.1072 231.969 80.6016 230.952C81.1016 229.935 81.7947 229.145 82.6811 228.582C83.5732 228.02 84.6101 227.739 85.7919 227.739C86.9737 227.739 88.0078 228.02 88.8942 228.582C89.7862 229.145 90.4794 229.935 90.9737 230.952C91.4737 231.969 91.7237 233.159 91.7237 234.523C91.7237 235.875 91.4737 237.057 90.9737 238.068C90.4794 239.08 89.7862 239.866 88.8942 240.429C88.0078 240.991 86.9737 241.273 85.7919 241.273ZM85.7919 239.466C86.6896 239.466 87.4283 239.236 88.0078 238.776C88.5874 238.315 89.0163 237.71 89.2947 236.96C89.5732 236.21 89.7124 235.398 89.7124 234.523C89.7124 233.648 89.5732 232.832 89.2947 232.077C89.0163 231.321 88.5874 230.71 88.0078 230.244C87.4283 229.778 86.6896 229.545 85.7919 229.545C84.8942 229.545 84.1555 229.778 83.576 230.244C82.9965 230.71 82.5675 231.321 82.2891 232.077C82.0107 232.832 81.8714 233.648 81.8714 234.523C81.8714 235.398 82.0107 236.21 82.2891 236.96C82.5675 237.71 82.9965 238.315 83.576 238.776C84.1555 239.236 84.8942 239.466 85.7919 239.466Z" fill="white"/>
<path d="M72.3857 241.273C71.1584 241.273 70.1016 240.983 69.2152 240.403C68.3288 239.824 67.647 239.026 67.1697 238.009C66.6925 236.991 66.4538 235.83 66.4538 234.523C66.4538 233.193 66.6982 232.02 67.1868 231.003C67.6811 229.98 68.3686 229.182 69.2493 228.608C70.1357 228.028 71.1697 227.739 72.3516 227.739C73.272 227.739 74.1016 227.909 74.8402 228.25C75.5788 228.591 76.1839 229.068 76.6555 229.682C77.1271 230.295 77.4197 231.011 77.5334 231.83H75.522C75.3686 231.233 75.0277 230.705 74.4993 230.244C73.9766 229.778 73.272 229.545 72.3857 229.545C71.6016 229.545 70.9141 229.75 70.3232 230.159C69.7379 230.563 69.2805 231.134 68.951 231.872C68.6271 232.605 68.4652 233.466 68.4652 234.455C68.4652 235.466 68.6243 236.347 68.9425 237.097C69.2663 237.847 69.7209 238.429 70.3061 238.844C70.897 239.259 71.5902 239.466 72.3857 239.466C72.9084 239.466 73.3828 239.375 73.8089 239.193C74.2351 239.011 74.5959 238.75 74.8913 238.409C75.1868 238.068 75.397 237.659 75.522 237.182H77.5334C77.4197 237.955 77.1385 238.651 76.6896 239.27C76.2465 239.884 75.6584 240.372 74.9254 240.736C74.1982 241.094 73.3516 241.273 72.3857 241.273Z" fill="white"/>
<path d="M63.3835 223.545V241H61.3722V223.545H63.3835Z" fill="white"/>
<path d="M52.892 241.273C51.6307 241.273 50.5426 240.994 49.6278 240.438C48.7187 239.875 48.017 239.091 47.5227 238.085C47.0341 237.074 46.7898 235.898 46.7898 234.557C46.7898 233.216 47.0341 232.034 47.5227 231.011C48.017 229.983 48.7045 229.182 49.5852 228.608C50.4716 228.028 51.5057 227.739 52.6875 227.739C53.3693 227.739 54.0426 227.852 54.7074 228.08C55.3722 228.307 55.9773 228.676 56.5227 229.188C57.0682 229.693 57.5028 230.364 57.8267 231.199C58.1506 232.034 58.3125 233.063 58.3125 234.284V235.136H48.2216V233.398H56.267C56.267 232.659 56.1193 232 55.8239 231.42C55.5341 230.841 55.1193 230.384 54.5795 230.048C54.0455 229.713 53.4148 229.545 52.6875 229.545C51.8864 229.545 51.1932 229.744 50.608 230.142C50.0284 230.534 49.5824 231.045 49.2699 231.676C48.9574 232.307 48.8011 232.983 48.8011 233.705V234.864C48.8011 235.852 48.9716 236.69 49.3125 237.378C49.6591 238.06 50.1392 238.58 50.7528 238.938C51.3665 239.29 52.0795 239.466 52.892 239.466C53.4205 239.466 53.8977 239.392 54.3239 239.244C54.7557 239.091 55.1278 238.864 55.4403 238.563C55.7528 238.256 55.9943 237.875 56.1648 237.42L58.108 237.966C57.9034 238.625 57.5597 239.205 57.0767 239.705C56.5938 240.199 55.9972 240.585 55.2869 240.864C54.5767 241.136 53.7784 241.273 52.892 241.273Z" fill="white"/>
<path d="M29.2841 241L24.5114 223.545H26.6591L30.3068 237.761H30.4773L34.1932 223.545H36.5795L40.2955 237.761H40.4659L44.1136 223.545H46.2614L41.4886 241H39.3068L35.4545 227.091H35.3182L31.4659 241H29.2841Z" fill="white"/>
<path d="M124.568 204.545C122.205 204.545 120.131 203.983 118.347 202.858C116.574 201.733 115.188 200.159 114.188 198.136C113.199 196.114 112.705 193.75 112.705 191.045C112.705 188.318 113.199 185.938 114.188 183.903C115.188 181.869 116.574 180.29 118.347 179.165C120.131 178.04 122.205 177.477 124.568 177.477C126.932 177.477 129 178.04 130.773 179.165C132.557 180.29 133.943 181.869 134.932 183.903C135.932 185.938 136.432 188.318 136.432 191.045C136.432 193.75 135.932 196.114 134.932 198.136C133.943 200.159 132.557 201.733 130.773 202.858C129 203.983 126.932 204.545 124.568 204.545ZM124.568 200.932C126.364 200.932 127.841 200.472 129 199.551C130.159 198.631 131.017 197.42 131.574 195.92C132.131 194.42 132.409 192.795 132.409 191.045C132.409 189.295 132.131 187.665 131.574 186.153C131.017 184.642 130.159 183.42 129 182.489C127.841 181.557 126.364 181.091 124.568 181.091C122.773 181.091 121.295 181.557 120.136 182.489C118.977 183.42 118.119 184.642 117.562 186.153C117.006 187.665 116.727 189.295 116.727 191.045C116.727 192.795 117.006 194.42 117.562 195.92C118.119 197.42 118.977 198.631 120.136 199.551C121.295 200.472 122.773 200.932 124.568 200.932Z" fill="white"/>
<path d="M106.564 169.091V204H102.541V169.091H106.564Z" fill="white"/>
<path d="M95.1733 169.091V204H91.1506V169.091H95.1733Z" fill="white"/>
<path d="M74.1903 204.545C71.6676 204.545 69.4915 203.989 67.6619 202.875C65.8437 201.75 64.4403 200.182 63.4517 198.17C62.4744 196.148 61.9858 193.795 61.9858 191.114C61.9858 188.432 62.4744 186.068 63.4517 184.023C64.4403 181.966 65.8153 180.364 67.5767 179.216C69.3494 178.057 71.4176 177.477 73.7812 177.477C75.1449 177.477 76.4915 177.705 77.821 178.159C79.1506 178.614 80.3608 179.352 81.4517 180.375C82.5426 181.386 83.4119 182.727 84.0597 184.398C84.7074 186.068 85.0312 188.125 85.0312 190.568V192.273H64.8494V188.795H80.9403C80.9403 187.318 80.6449 186 80.054 184.841C79.4744 183.682 78.6449 182.767 77.5653 182.097C76.4972 181.426 75.2358 181.091 73.7812 181.091C72.179 181.091 70.7926 181.489 69.6222 182.284C68.4631 183.068 67.571 184.091 66.946 185.352C66.321 186.614 66.0085 187.966 66.0085 189.409V191.727C66.0085 193.705 66.3494 195.381 67.0312 196.756C67.7244 198.119 68.6847 199.159 69.9119 199.875C71.1392 200.58 72.5653 200.932 74.1903 200.932C75.2472 200.932 76.2017 200.784 77.054 200.489C77.9176 200.182 78.6619 199.727 79.2869 199.125C79.9119 198.511 80.3949 197.75 80.7358 196.841L84.6222 197.932C84.2131 199.25 83.5256 200.409 82.5597 201.409C81.5938 202.398 80.4006 203.17 78.9801 203.727C77.5597 204.273 75.9631 204.545 74.1903 204.545Z" fill="white"/>
<path d="M28.2273 204V169.091H32.4545V184.636H51.0682V169.091H55.2955V204H51.0682V188.386H32.4545V204H28.2273Z" fill="white"/>
<path d="M63.3664 15.4332C57.1583 15.4329 51.0896 17.2735 45.9276 20.7223C40.7656 24.1711 36.7422 29.0732 34.3663 34.8087C31.9904 40.5441 31.3685 46.8553 32.5795 52.9441C33.7904 59.0329 36.7798 64.6259 41.1694 69.0158C45.5591 73.4057 51.1519 76.3953 57.2407 77.6066C63.3295 78.8178 69.6407 78.1963 75.3763 75.8206C81.1118 73.445 86.0141 69.4219 89.4631 64.2601C92.9122 59.0983 94.7531 53.0296 94.7531 46.8215C94.7531 38.4971 91.4464 30.5136 85.5603 24.6272C79.6742 18.7408 71.6908 15.4336 63.3664 15.4332ZM60.9088 44.599H65.7344C67.897 44.597 69.9719 45.4542 71.5026 46.982C73.0332 48.5098 73.8943 50.5831 73.8963 52.7457C73.8983 54.9084 73.0411 56.9833 71.5133 58.5139C69.9855 60.0446 67.9123 60.9056 65.7496 60.9076V64.925C65.7582 65.2766 65.6963 65.6263 65.5677 65.9536C65.4391 66.2809 65.2463 66.5791 65.0007 66.8308C64.7551 67.0825 64.4616 67.2825 64.1375 67.419C63.8134 67.5556 63.4653 67.6259 63.1137 67.6259C62.762 67.6259 62.4139 67.5556 62.0898 67.419C61.7658 67.2825 61.4723 67.0825 61.2267 66.8308C60.9811 66.5791 60.7883 66.2809 60.6596 65.9536C60.531 65.6263 60.4692 65.2766 60.4777 64.925V60.9086H54.9769C54.2776 60.9086 53.607 60.6308 53.1125 60.1363C52.618 59.6419 52.3402 58.9712 52.3402 58.2719C52.3402 57.5726 52.618 56.9019 53.1125 56.4075C53.607 55.913 54.2776 55.6352 54.9769 55.6352H65.7344C66.1155 55.6396 66.4938 55.5684 66.8472 55.4256C67.2006 55.2828 67.5222 55.0713 67.7932 54.8034C68.0643 54.5354 68.2796 54.2163 68.4264 53.8646C68.5733 53.5129 68.649 53.1355 68.649 52.7543C68.649 52.3732 68.5733 51.9958 68.4264 51.644C68.2796 51.2923 68.0643 50.9732 67.7932 50.7053C67.5222 50.4373 67.2006 50.2258 66.8472 50.083C66.4938 49.9403 66.1155 49.869 65.7344 49.8735H60.9088C58.6746 49.8784 56.5273 49.0089 54.926 47.4509C53.3247 45.8929 52.3966 43.7702 52.3403 41.5367C52.284 39.3033 53.1039 37.1365 54.6246 35.4998C56.1454 33.8631 58.2462 32.8864 60.4777 32.7787V28.7184C60.4692 28.3668 60.531 28.0171 60.6596 27.6898C60.7883 27.3625 60.9811 27.0643 61.2267 26.8126C61.4723 26.5609 61.7658 26.3609 62.0898 26.2244C62.4139 26.0878 62.762 26.0175 63.1137 26.0175C63.4653 26.0175 63.8134 26.0878 64.1375 26.2244C64.4616 26.3609 64.7551 26.5609 65.0007 26.8126C65.2463 27.0643 65.4391 27.3625 65.5677 27.6898C65.6963 28.0171 65.7582 28.3668 65.7496 28.7184V32.7342H71.7559C72.4552 32.7342 73.1258 33.012 73.6203 33.5065C74.1148 34.001 74.3926 34.6716 74.3926 35.3709C74.3926 36.0702 74.1148 36.7409 73.6203 37.2354C73.1258 37.7298 72.4552 38.0076 71.7559 38.0076H60.9088C60.0348 38.0076 59.1965 38.3548 58.5785 38.9729C57.9605 39.5909 57.6133 40.4291 57.6133 41.3032C57.6133 42.1772 57.9605 43.0154 58.5785 43.6334C59.1965 44.2515 60.0348 44.599 60.9088 44.599Z" fill="#D9D9D9" fill-opacity="0.24"/>
<path d="M29.5037 84.75H16.6955C16.4278 84.75 16.1627 84.8027 15.9153 84.9052C15.668 85.0077 15.4432 85.1579 15.254 85.3472C15.0647 85.5366 14.9146 85.7614 14.8122 86.0088C14.7099 86.2562 14.6573 86.5213 14.6574 86.7891V130.502C14.6575 131.043 14.8722 131.561 15.2544 131.943C15.6366 132.325 16.155 132.54 16.6955 132.54H29.5037C30.6818 132.54 31.8115 132.072 32.6444 131.239C33.4774 130.406 33.9453 129.276 33.9453 128.098V89.1914C33.9451 88.0135 33.477 86.8839 32.6441 86.0511C31.8112 85.2182 30.6816 84.7502 29.5037 84.75Z" fill="#D9D9D9" fill-opacity="0.24"/>
<path d="M110.015 89.8832C109.338 88.8523 108.415 88.0061 107.329 87.4211C106.243 86.836 105.029 86.5305 103.796 86.532H98.776C96.6223 86.5275 94.5161 87.1648 92.7261 88.3624C90.9362 89.5601 89.5436 91.2639 88.7262 93.2565C88.2408 94.4147 87.5647 95.4834 86.7258 96.418C85.3002 98.607 83.3712 100.423 81.1002 101.714C78.8292 103.005 76.2821 103.733 73.6719 103.838L58.8041 103.839C58.1048 103.839 57.4341 103.561 56.9397 103.067C56.4452 102.573 56.1674 101.902 56.1674 101.203C56.1674 100.503 56.4452 99.8326 56.9397 99.3381C57.4341 98.8436 58.1048 98.5658 58.8041 98.5658H73.6014C75.5025 98.5171 77.3496 97.9228 78.9225 96.8537V96.7645C78.9277 95.4227 78.6679 94.0931 78.158 92.8519C77.6482 91.6107 76.8983 90.4825 75.9513 89.5318C75.0044 88.5811 73.8791 87.8267 72.64 87.312C71.4008 86.7972 70.0723 86.5322 68.7305 86.532H57.8203C55.8267 86.5263 53.8517 86.915 52.0091 87.676C50.1665 88.4369 48.4926 89.5549 47.084 90.9656L46.8055 91.2432C44.7412 93.3043 42.0905 94.6772 39.216 95.1742V124.298H79.0039C84.9032 124.302 90.6739 122.574 95.6005 119.329C100.527 116.084 104.393 111.465 106.719 106.043L110.638 96.9203C111.127 95.7879 111.326 94.5516 111.217 93.323C111.109 92.0944 110.696 90.9122 110.015 89.8832Z" fill="#D9D9D9" fill-opacity="0.24"/>
<path d="M310.5 329H303.5C299.65 329 296.5 332.15 296.5 336C296.5 339.85 299.65 343 303.5 343H310.5C314.35 343 317.5 339.85 317.5 336C317.5 332.15 314.35 329 310.5 329Z" fill="#A99DE7"/>
<path d="M338.5 322H331.5C327.65 322 324.5 325.15 324.5 329V336C324.5 339.85 327.65 343 331.5 343H338.5C342.35 343 345.5 339.85 345.5 336V329C345.5 325.15 342.35 322 338.5 322Z" fill="#A99DE7"/>
<path d="M366.5 308H359.5C355.65 308 352.5 311.15 352.5 315V336C352.5 339.85 355.65 343 359.5 343H366.5C370.35 343 373.5 339.85 373.5 336V315C373.5 311.15 370.35 308 366.5 308Z" fill="#A99DE7"/>
<path d="M370 273H346.9C343.75 273 342.35 276.85 344.45 278.95L351.1 285.6C338.15 300.3 319.6 311.5 300 311.5C297.9 311.5 296.5 312.9 296.5 315C296.5 317.1 297.9 318.5 300 318.5C323.45 318.5 345.15 311.85 360.9 295.4L367.2 301.7C369.3 303.8 373.15 302.4 373.15 299.25V276.5C373.5 274.4 372.1 273 370 273Z" fill="#A99DE7"/>
</g>
<defs>
<clipPath id="clip0_148_230">
<rect width="393" height="360" fill="white"/>
</clipPath>
</defs>
</svg>
