<svg width="23" height="23" viewBox="0 0 23 23" fill="none" xmlns="http://www.w3.org/2000/svg">
<path d="M21.8439 10.0811V4.59801C21.8439 3.02319 18.5673 2.29901 15.5207 2.29901C14.5579 2.29528 13.5964 2.37219 12.6465 2.52891V2.29901C12.6465 0.724187 9.36989 0 6.32324 0C3.27659 0 0 0.724187 0 2.29901V19.5416C0 21.1164 3.27659 21.8406 6.32324 21.8406C7.41525 21.8425 8.50487 21.7385 9.57683 21.5302C11.1916 22.6182 13.1275 23.1268 15.0686 22.9731C17.0097 22.8195 18.8414 22.0125 20.2648 20.684C21.6882 19.3556 22.6193 17.5839 22.9061 15.6583C23.1929 13.7326 22.8184 11.7667 21.8439 10.0811ZM18.2684 6.69011C19.1076 6.57935 19.9254 6.34297 20.6942 5.98891V8.52932C20.0003 7.77815 19.1791 7.1555 18.2684 6.69011ZM6.32324 4.59801C8.09248 4.66309 9.85551 4.35363 11.4968 3.68991V5.74752C11.4048 6.06938 9.6803 6.89702 6.32324 6.89702C2.96617 6.89702 1.24165 6.05788 1.14968 5.74752V3.68991C2.79096 4.35363 4.55399 4.66309 6.32324 4.59801ZM6.25426 11.495C5.97237 12.232 5.80188 13.0068 5.7484 13.794C2.75923 13.7021 1.20716 12.9549 1.14968 12.6445V10.5869C2.77022 11.2389 4.50827 11.5481 6.25426 11.495ZM1.14968 16.0931V14.0354C2.60602 14.6439 4.17005 14.9527 5.7484 14.9435C5.80354 15.7283 5.96601 16.5019 6.23126 17.2426C2.94318 17.2426 1.24165 16.4034 1.14968 16.0931ZM6.76012 10.3455H6.32324C2.96617 10.3455 1.24165 9.50639 1.14968 9.19603V7.13842C2.79096 7.80214 4.55399 8.1116 6.32324 8.04653C7.11513 8.04938 7.90633 7.99946 8.69158 7.89709C7.90482 8.58959 7.25038 9.4192 6.76012 10.3455ZM15.5207 3.44851C18.8892 3.44851 20.6138 4.28765 20.6942 4.59801C20.7747 4.90838 18.8892 5.74752 15.5207 5.74752C14.5575 5.74971 13.5958 5.66895 12.6465 5.50612V3.68991C13.5958 3.52708 14.5575 3.44632 15.5207 3.44851ZM6.32324 1.1495C9.65731 1.1495 11.3818 1.97715 11.4968 2.29901C11.3818 2.60937 9.77227 3.37954 6.67964 3.44851H6.32324C2.96617 3.44851 1.24165 2.60937 1.14968 2.29901C1.24165 1.98864 2.96617 1.1495 6.32324 1.1495ZM6.32324 20.6911C2.96617 20.6911 1.24165 19.8519 1.14968 19.5416V17.4839C2.79096 18.1477 4.55399 18.4571 6.32324 18.3921H6.74862C7.17451 19.198 7.72554 19.9313 8.38116 20.5646C7.69841 20.6487 7.01115 20.6909 6.32324 20.6911ZM14.371 21.8406C12.893 21.8406 11.4482 21.4024 10.2193 20.5813C8.99035 19.7603 8.03253 18.5934 7.46692 17.2281C6.90131 15.8628 6.75332 14.3605 7.04167 12.9111C7.33001 11.4617 8.04174 10.1304 9.08684 9.08545C10.1319 8.04051 11.4635 7.32889 12.9131 7.04059C14.3627 6.75229 15.8653 6.90026 17.2308 7.46578C18.5963 8.0313 19.7634 8.98897 20.5845 10.2177C21.4056 11.4464 21.8439 12.891 21.8439 14.3688C21.8409 16.3495 21.0526 18.2482 19.6518 19.6488C18.251 21.0493 16.352 21.8375 14.371 21.8406Z" fill="#088711"/>
<path d="M14.9458 13.7939V11.1501C15.2114 11.1982 15.4588 11.3178 15.6614 11.496C15.864 11.6743 16.0141 11.9044 16.0955 12.1616C16.1321 12.3141 16.2278 12.4457 16.3614 12.5277C16.4951 12.6096 16.6559 12.635 16.8083 12.5985C16.9608 12.5619 17.0924 12.4662 17.1744 12.3326C17.2563 12.1989 17.2818 12.0382 17.2452 11.8858C17.0808 11.3876 16.7767 10.9472 16.369 10.6171C15.9613 10.2869 15.4673 10.0809 14.9458 10.0236V9.77067C14.9458 9.61824 14.8853 9.47205 14.7775 9.36426C14.6697 9.25648 14.5234 9.19592 14.371 9.19592C14.2185 9.19592 14.0723 9.25648 13.9645 9.36426C13.8567 9.47205 13.7962 9.61824 13.7962 9.77067V10.0121C13.1878 10.0838 12.624 10.3673 12.2037 10.8129C11.7833 11.2584 11.5331 11.8376 11.4968 12.449C11.4982 12.6268 11.5175 12.8039 11.5543 12.9778C11.6991 13.4864 11.9877 13.9424 12.3854 14.2911C12.783 14.6398 13.2729 14.8663 13.7962 14.9434V17.5988C13.5306 17.5507 13.2832 17.4311 13.0806 17.2529C12.878 17.0746 12.7279 16.8445 12.6465 16.5872C12.6099 16.4348 12.5142 16.3031 12.3806 16.2212C12.2469 16.1393 12.0861 16.1138 11.9337 16.1504C11.7812 16.187 11.6495 16.2826 11.5676 16.4163C11.4857 16.55 11.4602 16.7107 11.4968 16.8631C11.6605 17.3606 11.9647 17.8001 12.3727 18.1285C12.7808 18.4569 13.2751 18.6602 13.7962 18.7138V18.9667C13.7962 19.1191 13.8567 19.2653 13.9645 19.3731C14.0723 19.4809 14.2185 19.5415 14.371 19.5415C14.5234 19.5415 14.6697 19.4809 14.7775 19.3731C14.8853 19.2653 14.9458 19.1191 14.9458 18.9667V18.7138C15.4753 18.6549 15.9756 18.4414 16.3845 18.1C16.7934 17.7586 17.0927 17.3045 17.2452 16.7941C17.2807 16.6278 17.3 16.4584 17.3027 16.2884C17.2754 15.6587 17.0222 15.06 16.5893 14.6019C16.1565 14.1438 15.573 13.8569 14.9458 13.7939ZM12.6465 12.6444C12.6345 12.5606 12.6345 12.4754 12.6465 12.3915C12.6763 12.0863 12.8045 11.799 13.0119 11.573C13.2193 11.3469 13.4945 11.1945 13.7962 11.1386V13.656C13.5376 13.6118 13.2953 13.5004 13.0935 13.3329C12.8917 13.1654 12.7375 12.9478 12.6465 12.7019V12.6444ZM16.0955 16.5298C16.0141 16.787 15.864 17.0171 15.6614 17.1954C15.4588 17.3736 15.2114 17.4932 14.9458 17.5413V15.0239C15.2492 15.0804 15.5258 15.2345 15.7333 15.4628C15.9409 15.6911 16.0681 15.981 16.0955 16.2884C16.1059 16.3685 16.1059 16.4496 16.0955 16.5298Z" fill="#088711"/>
</svg>
