<svg width="23" height="23" viewBox="0 0 23 23" fill="none" xmlns="http://www.w3.org/2000/svg">
<path d="M14.1324 9.2359C14.3391 9.09215 14.384 8.80465 14.2402 8.607C13.3867 7.42106 13.4496 5.86676 14.402 4.74372C16.2797 2.51559 19.2625 1.71598 21.5805 1.44645C21.6703 2.77614 21.4906 4.28551 21.0504 5.74098C20.8887 6.27106 19.4063 10.8711 16.2168 9.91872C16.082 9.87379 15.2465 9.49645 15.0668 9.39762C14.968 9.31676 14.8422 9.28981 14.7164 9.30778C14.1414 9.40661 13.5215 11.5718 13.4766 12.5511C13.4676 12.8027 13.6563 13.0093 13.9078 13.0273C13.9168 13.0273 13.9258 13.0273 13.9258 13.0273C14.1684 13.0273 14.366 12.8386 14.375 12.5961C14.4109 11.7156 14.7434 10.8172 14.959 10.35C15.0309 10.3859 15.1117 10.4218 15.2016 10.4578C15.3453 10.5207 15.8305 10.7453 15.9473 10.7812C19.0109 11.6976 21.0774 8.7777 21.9129 6.00153C22.425 4.28551 22.6137 2.47965 22.434 0.934341C22.434 0.925356 22.434 0.907388 22.425 0.898403C22.3801 0.655825 22.1465 0.485122 21.9039 0.512075C18.2742 0.853481 15.4352 2.12028 13.7012 4.16872C12.4793 5.6152 12.3984 7.60973 13.4945 9.13707C13.6473 9.33473 13.9348 9.37965 14.1324 9.2359Z" fill="black"/>
<path d="M8.85858 11.7066C9.77499 11.7694 10.4219 11.3292 10.7992 10.9698C11.2754 11.5089 11.6617 12.1109 11.9402 12.7487C12.0121 12.9194 12.1828 13.0183 12.3535 13.0183C12.4164 13.0183 12.4793 13.0093 12.5332 12.9823C12.7578 12.8835 12.8656 12.614 12.7668 12.3894C12.3805 11.4999 11.8144 10.6823 11.0957 9.97257C10.9969 9.87374 10.8621 9.82882 10.7273 9.84679C10.5926 9.86476 10.4668 9.93663 10.3949 10.0534C10.3859 10.0624 9.86483 10.871 8.94842 10.8081C7.33124 10.5835 6.25311 8.64288 5.63319 7.03468C5.60624 6.96281 5.49843 6.68429 5.40858 6.43273C6.54061 6.23507 8.75975 6.01945 10.1973 7.01671C10.8262 7.45695 11.1316 8.26554 10.934 9.02023C10.8711 9.26281 11.0238 9.50538 11.2664 9.56827C11.509 9.63117 11.7515 9.47843 11.8144 9.23585C12.093 8.11281 11.6527 6.91788 10.7094 6.27101C8.77772 4.94132 5.88475 5.39952 4.69882 5.66007C4.57303 5.69601 4.47421 5.78585 4.4203 5.90265C4.34843 6.05538 4.3035 6.15421 4.79764 7.37609C5.82186 10.0265 7.1785 11.4819 8.85858 11.7066Z" fill="black"/>
<path d="M20.4484 14.4558L14.8781 16.7917C14.6445 16.8906 14.5367 17.1511 14.6355 17.3847C14.7344 17.6183 14.9949 17.7261 15.2285 17.6273L20.7988 15.2914C21.0414 15.1925 21.3109 15.2644 21.4727 15.4621C21.5715 15.5878 21.6164 15.7496 21.5895 15.9113C21.5625 16.073 21.4727 16.2167 21.3289 16.3066C18.9031 17.8968 13.3687 21.0234 13.1082 21.1671C13.0992 21.1761 13.0902 21.1761 13.0723 21.1851C12.3984 21.5804 11.6527 21.6972 10.7004 21.5265C10.6375 21.5175 9.36172 21.3558 6.30703 20.9875L4.74375 20.7988V14.7074C4.99531 14.6894 5.21094 14.6804 5.31875 14.6804H5.37266C7.475 14.5457 9.47852 14.95 11.6078 15.3812C11.8773 15.4351 12.1559 15.489 12.4254 15.5429C12.7129 15.5968 12.9285 15.8574 12.9285 16.1539C12.9285 16.1718 12.9285 16.1898 12.9195 16.2257C12.9016 16.3964 12.8117 16.5222 12.7398 16.5851C12.623 16.7019 12.4703 16.7648 12.2996 16.7648H8.05898C7.80742 16.7648 7.60977 16.9714 7.60977 17.214C7.60977 17.4566 7.81641 17.6632 8.05898 17.6632H12.3176C12.7219 17.6632 13.1082 17.5015 13.3957 17.214C13.6383 16.9625 13.791 16.657 13.827 16.3425C13.8359 16.2796 13.8449 16.2078 13.8449 16.1449C13.8449 15.4171 13.3238 14.7882 12.6141 14.6535C12.3445 14.5996 12.075 14.5457 11.7965 14.4917C9.70312 14.0695 7.54688 13.6292 5.32773 13.773H5.28281C5.18398 13.782 4.96836 13.791 4.72578 13.8C4.67188 13.6113 4.51016 13.4675 4.29453 13.4675H0.943359C0.691797 13.4675 0.494141 13.6742 0.494141 13.9167V21.5085C0.494141 21.7601 0.700781 21.9578 0.943359 21.9578H4.30352C4.4832 21.9578 4.63594 21.85 4.70781 21.6972L6.2082 21.8769C7.99609 22.0925 10.4488 22.398 10.5566 22.407C10.8891 22.4699 11.2125 22.4968 11.518 22.4968C12.2637 22.4968 12.9285 22.3171 13.5305 21.9667C13.5395 21.9667 13.5395 21.9578 13.5484 21.9578C13.6023 21.9218 19.3254 18.6875 21.823 17.0613C22.1734 16.8367 22.416 16.4683 22.4789 16.055C22.5418 15.6417 22.434 15.2195 22.1645 14.896C21.7512 14.366 21.0594 14.1953 20.4484 14.4558ZM3.8543 21.0503H1.40156V14.366H3.8543V21.0503Z" fill="black"/>
</svg>
