<svg width="393" height="216" viewBox="0 0 393 216" fill="none" xmlns="http://www.w3.org/2000/svg">
<g clip-path="url(#clip0_150_29)">
<path d="M429.159 55.2271C406.516 18.272 377.025 -1.45222 346.711 0.0832855C316.397 1.61879 287.546 24.2982 266.052 63.489C244.558 102.68 232.043 155.425 231.062 210.951C230.082 266.477 240.71 320.593 260.776 362.247L262.434 359.566C242.741 318.687 232.31 265.576 233.273 211.082C234.235 156.588 246.518 104.823 267.612 66.3606C288.707 27.8982 317.021 5.64033 346.772 4.13336C376.523 2.62639 405.465 21.984 427.688 58.2523L429.159 55.2271Z" fill="#A99DE7"/>
<path d="M456.159 68.2271C434.137 32.2863 405.615 12.6072 376.122 13.0059C346.629 13.4046 318.268 33.8527 296.538 70.3851C274.809 106.917 261.259 156.931 258.516 210.726C255.773 264.522 264.033 318.267 281.694 361.54L283.465 359.114C266.132 316.646 258.026 263.899 260.718 211.103C263.41 158.307 276.708 109.223 298.034 73.3701C319.36 37.5168 347.194 17.4487 376.138 17.0574C405.083 16.6661 433.075 35.9795 454.688 71.2523L456.159 68.2271Z" fill="#A99DE7"/>
<path d="M486.159 92.2271C465.216 58.0473 438.356 38.5177 410.319 37.0848C382.281 35.6519 354.868 52.4077 332.918 84.3955C310.968 116.383 295.89 161.547 290.347 211.916C284.804 262.285 289.151 314.623 302.621 359.693L304.561 357.747C291.341 313.515 287.075 262.15 292.515 212.717C297.955 163.284 312.752 118.959 334.295 87.5662C355.837 56.173 382.74 39.7286 410.257 41.1348C437.773 42.5411 464.134 61.7077 484.688 95.2523L486.159 92.2271Z" fill="#A99DE7"/>
<path d="M63.3664 15.4332C57.1583 15.4329 51.0896 17.2735 45.9276 20.7223C40.7656 24.1711 36.7423 29.0732 34.3663 34.8087C31.9904 40.5441 31.3686 46.8553 32.5795 52.9441C33.7905 59.0329 36.7798 64.6259 41.1694 69.0158C45.5591 73.4057 51.152 76.3953 57.2407 77.6066C63.3295 78.8178 69.6407 78.1963 75.3763 75.8206C81.1118 73.445 86.0141 69.4219 89.4632 64.2601C92.9122 59.0983 94.7531 53.0296 94.7531 46.8215C94.7531 38.4971 91.4464 30.5136 85.5603 24.6272C79.6742 18.7408 71.6908 15.4336 63.3664 15.4332ZM60.9088 44.599H65.7344C67.897 44.597 69.9719 45.4542 71.5026 46.982C73.0332 48.5098 73.8943 50.5831 73.8963 52.7457C73.8983 54.9084 73.0412 56.9833 71.5134 58.5139C69.9856 60.0446 67.9123 60.9056 65.7496 60.9076V64.925C65.7582 65.2766 65.6963 65.6263 65.5677 65.9536C65.4391 66.2809 65.2463 66.5791 65.0007 66.8308C64.7551 67.0825 64.4616 67.2825 64.1375 67.419C63.8135 67.5556 63.4653 67.6259 63.1137 67.6259C62.762 67.6259 62.4139 67.5556 62.0899 67.419C61.7658 67.2825 61.4723 67.0825 61.2267 66.8308C60.9811 66.5791 60.7883 66.2809 60.6597 65.9536C60.531 65.6263 60.4692 65.2766 60.4777 64.925V60.9086H54.977C54.2777 60.9086 53.607 60.6308 53.1125 60.1363C52.618 59.6419 52.3403 58.9712 52.3403 58.2719C52.3403 57.5726 52.618 56.9019 53.1125 56.4075C53.607 55.913 54.2777 55.6352 54.977 55.6352H65.7344C66.1155 55.6396 66.4938 55.5684 66.8472 55.4256C67.2006 55.2828 67.5222 55.0713 67.7933 54.8034C68.0644 54.5354 68.2796 54.2163 68.4265 53.8646C68.5734 53.5129 68.649 53.1355 68.649 52.7543C68.649 52.3732 68.5734 51.9958 68.4265 51.644C68.2796 51.2923 68.0644 50.9732 67.7933 50.7053C67.5222 50.4373 67.2006 50.2258 66.8472 50.083C66.4938 49.9403 66.1155 49.869 65.7344 49.8735H60.9088C58.6747 49.8784 56.5273 49.0089 54.926 47.4509C53.3247 45.8929 52.3967 43.7702 52.3403 41.5367C52.284 39.3033 53.1039 37.1365 54.6246 35.4998C56.1454 33.8631 58.2462 32.8864 60.4777 32.7787V28.7184C60.4692 28.3668 60.531 28.0171 60.6597 27.6898C60.7883 27.3625 60.9811 27.0643 61.2267 26.8126C61.4723 26.5609 61.7658 26.3609 62.0899 26.2244C62.4139 26.0878 62.762 26.0175 63.1137 26.0175C63.4653 26.0175 63.8135 26.0878 64.1375 26.2244C64.4616 26.3609 64.7551 26.5609 65.0007 26.8126C65.2463 27.0643 65.4391 27.3625 65.5677 27.6898C65.6963 28.0171 65.7582 28.3668 65.7496 28.7184V32.7342H71.7559C72.4552 32.7342 73.1258 33.012 73.6203 33.5065C74.1148 34.001 74.3926 34.6716 74.3926 35.3709C74.3926 36.0702 74.1148 36.7409 73.6203 37.2354C73.1258 37.7298 72.4552 38.0076 71.7559 38.0076H60.9088C60.0348 38.0076 59.1966 38.3548 58.5785 38.9729C57.9605 39.5909 57.6133 40.4291 57.6133 41.3032C57.6133 42.1772 57.9605 43.0154 58.5785 43.6334C59.1966 44.2515 60.0348 44.599 60.9088 44.599Z" fill="#D9D9D9" fill-opacity="0.24"/>
<path d="M29.5037 84.75H16.6955C16.4278 84.75 16.1626 84.8027 15.9153 84.9052C15.668 85.0077 15.4432 85.1579 15.2539 85.3472C15.0647 85.5366 14.9146 85.7614 14.8122 86.0088C14.7099 86.2562 14.6573 86.5213 14.6574 86.7891V130.502C14.6575 131.043 14.8722 131.561 15.2544 131.943C15.6366 132.325 16.155 132.54 16.6955 132.54H29.5037C30.6818 132.54 31.8115 132.072 32.6444 131.239C33.4774 130.406 33.9453 129.276 33.9453 128.098V89.1914C33.945 88.0135 33.477 86.8839 32.6441 86.0511C31.8112 85.2182 30.6816 84.7502 29.5037 84.75Z" fill="#D9D9D9" fill-opacity="0.24"/>
<path d="M110.015 89.8832C109.338 88.8523 108.415 88.0061 107.329 87.4211C106.243 86.836 105.029 86.5305 103.795 86.532H98.776C96.6223 86.5275 94.5161 87.1648 92.7261 88.3624C90.9362 89.5601 89.5436 91.2639 88.7262 93.2565C88.2408 94.4147 87.5646 95.4834 86.7258 96.418C85.3002 98.607 83.3712 100.423 81.1002 101.714C78.8292 103.005 76.2821 103.733 73.6719 103.838L58.8041 103.839C58.1048 103.839 57.4341 103.561 56.9396 103.067C56.4452 102.573 56.1674 101.902 56.1674 101.203C56.1674 100.503 56.4452 99.8326 56.9396 99.3381C57.4341 98.8436 58.1048 98.5658 58.8041 98.5658H73.6014C75.5025 98.5171 77.3496 97.9228 78.9224 96.8537V96.7645C78.9276 95.4227 78.6679 94.0931 78.158 92.8519C77.6481 91.6107 76.8982 90.4825 75.9513 89.5318C75.0044 88.5811 73.8791 87.8267 72.64 87.312C71.4008 86.7972 70.0723 86.5322 68.7305 86.532H57.8203C55.8267 86.5263 53.8517 86.915 52.0091 87.676C50.1664 88.4369 48.4926 89.5549 47.084 90.9656L46.8055 91.2432C44.7412 93.3043 42.0905 94.6772 39.216 95.1742V124.298H79.0039C84.9032 124.302 90.6739 122.574 95.6005 119.329C100.527 116.084 104.393 111.465 106.719 106.043L110.638 96.9203C111.127 95.7879 111.326 94.5516 111.217 93.323C111.109 92.0944 110.695 90.9122 110.015 89.8832Z" fill="#D9D9D9" fill-opacity="0.24"/>
</g>
<defs>
<clipPath id="clip0_150_29">
<rect width="393" height="216" fill="white"/>
</clipPath>
</defs>
</svg>
